<?xml version="1.0" encoding="utf-8" standalone="no"?>
<!DOCTYPE svg PUBLIC "-//W3C//DTD SVG 1.1//EN"
  "http://www.w3.org/Graphics/SVG/1.1/DTD/svg11.dtd">
<svg xmlns:xlink="http://www.w3.org/1999/xlink" width="1920pt" height="986.25pt" viewBox="0 0 1920 986.25" xmlns="http://www.w3.org/2000/svg" version="1.1">
 <metadata>
  <rdf:RDF xmlns:dc="http://purl.org/dc/elements/1.1/" xmlns:cc="http://creativecommons.org/ns#" xmlns:rdf="http://www.w3.org/1999/02/22-rdf-syntax-ns#">
   <cc:Work>
    <dc:type rdf:resource="http://purl.org/dc/dcmitype/StillImage"/>
    <dc:date>2022-06-14T15:15:06.086721</dc:date>
    <dc:format>image/svg+xml</dc:format>
    <dc:creator>
     <cc:Agent>
      <dc:title>Matplotlib v3.5.2, https://matplotlib.org/</dc:title>
     </cc:Agent>
    </dc:creator>
   </cc:Work>
  </rdf:RDF>
 </metadata>
 <defs>
  <style type="text/css">*{stroke-linejoin: round; stroke-linecap: butt}</style>
 </defs>
 <g id="figure_1">
  <g id="patch_1">
   <path d="M 0 986.25 
L 1920 986.25 
L 1920 0 
L 0 0 
z
" style="fill: #ffffff"/>
  </g>
  <g id="axes_1">
   <g id="patch_2">
    <path d="M 240 877.7625 
L 1728 877.7625 
L 1728 118.35 
L 240 118.35 
z
" style="fill: #ffffff"/>
   </g>
   <g id="patch_3">
    <path d="M 307.636364 877.7625 
L 350.289926 877.7625 
L 350.289926 387.758274 
L 307.636364 387.758274 
z
" clip-path="url(#p2ebd5104ca)" style="fill: #1f77b4"/>
   </g>
   <g id="patch_4">
    <path d="M 673.238329 877.7625 
L 715.891892 877.7625 
L 715.891892 349.19748 
L 673.238329 349.19748 
z
" clip-path="url(#p2ebd5104ca)" style="fill: #1f77b4"/>
   </g>
   <g id="patch_5">
    <path d="M 1038.840295 877.7625 
L 1081.493857 877.7625 
L 1081.493857 235.396115 
L 1038.840295 235.396115 
z
" clip-path="url(#p2ebd5104ca)" style="fill: #1f77b4"/>
   </g>
   <g id="patch_6">
    <path d="M 1404.44226 877.7625 
L 1447.095823 877.7625 
L 1447.095823 154.5125 
L 1404.44226 154.5125 
z
" clip-path="url(#p2ebd5104ca)" style="fill: #1f77b4"/>
   </g>
   <g id="patch_7">
    <path d="M 350.289926 877.7625 
L 392.943489 877.7625 
L 392.943489 662.386362 
L 350.289926 662.386362 
z
" clip-path="url(#p2ebd5104ca)" style="fill: #ff7f0e"/>
   </g>
   <g id="patch_8">
    <path d="M 715.891892 877.7625 
L 758.545455 877.7625 
L 758.545455 629.468612 
L 715.891892 629.468612 
z
" clip-path="url(#p2ebd5104ca)" style="fill: #ff7f0e"/>
   </g>
   <g id="patch_9">
    <path d="M 1081.493857 877.7625 
L 1124.14742 877.7625 
L 1124.14742 336.970888 
L 1081.493857 336.970888 
z
" clip-path="url(#p2ebd5104ca)" style="fill: #ff7f0e"/>
   </g>
   <g id="patch_10">
    <path d="M 1447.095823 877.7625 
L 1489.749386 877.7625 
L 1489.749386 172.382136 
L 1447.095823 172.382136 
z
" clip-path="url(#p2ebd5104ca)" style="fill: #ff7f0e"/>
   </g>
   <g id="patch_11">
    <path d="M 392.943489 877.7625 
L 435.597052 877.7625 
L 435.597052 693.771086 
L 392.943489 693.771086 
z
" clip-path="url(#p2ebd5104ca)" style="fill: #2ca02c"/>
   </g>
   <g id="patch_12">
    <path d="M 758.545455 877.7625 
L 801.199017 877.7625 
L 801.199017 678.991016 
L 758.545455 678.991016 
z
" clip-path="url(#p2ebd5104ca)" style="fill: #2ca02c"/>
   </g>
   <g id="patch_13">
    <path d="M 1124.14742 877.7625 
L 1166.800983 877.7625 
L 1166.800983 651.475539 
L 1124.14742 651.475539 
z
" clip-path="url(#p2ebd5104ca)" style="fill: #2ca02c"/>
   </g>
   <g id="patch_14">
    <path d="M 1489.749386 877.7625 
L 1532.402948 877.7625 
L 1532.402948 603.858602 
L 1489.749386 603.858602 
z
" clip-path="url(#p2ebd5104ca)" style="fill: #2ca02c"/>
   </g>
   <g id="patch_15">
    <path d="M 435.597052 877.7625 
L 478.250614 877.7625 
L 478.250614 736.123063 
L 435.597052 736.123063 
z
" clip-path="url(#p2ebd5104ca)" style="fill: #d62728"/>
   </g>
   <g id="patch_16">
    <path d="M 801.199017 877.7625 
L 843.85258 877.7625 
L 843.85258 724.41469 
L 801.199017 724.41469 
z
" clip-path="url(#p2ebd5104ca)" style="fill: #d62728"/>
   </g>
   <g id="patch_17">
    <path d="M 1166.800983 877.7625 
L 1209.454545 877.7625 
L 1209.454545 659.564841 
L 1166.800983 659.564841 
z
" clip-path="url(#p2ebd5104ca)" style="fill: #d62728"/>
   </g>
   <g id="patch_18">
    <path d="M 1532.402948 877.7625 
L 1575.056511 877.7625 
L 1575.056511 587.277461 
L 1532.402948 587.277461 
z
" clip-path="url(#p2ebd5104ca)" style="fill: #d62728"/>
   </g>
   <g id="patch_19">
    <path d="M 478.250614 877.7625 
L 520.904177 877.7625 
L 520.904177 823.336292 
L 478.250614 823.336292 
z
" clip-path="url(#p2ebd5104ca)" style="fill: #9467bd"/>
   </g>
   <g id="patch_20">
    <path d="M 843.85258 877.7625 
L 886.506143 877.7625 
L 886.506143 809.103597 
L 843.85258 809.103597 
z
" clip-path="url(#p2ebd5104ca)" style="fill: #9467bd"/>
   </g>
   <g id="patch_21">
    <path d="M 1209.454545 877.7625 
L 1252.108108 877.7625 
L 1252.108108 765.785718 
L 1209.454545 765.785718 
z
" clip-path="url(#p2ebd5104ca)" style="fill: #9467bd"/>
   </g>
   <g id="patch_22">
    <path d="M 1575.056511 877.7625 
L 1617.710074 877.7625 
L 1617.710074 690.057964 
L 1575.056511 690.057964 
z
" clip-path="url(#p2ebd5104ca)" style="fill: #9467bd"/>
   </g>
   <g id="patch_23">
    <path d="M 520.904177 877.7625 
L 563.55774 877.7625 
L 563.55774 854.589344 
L 520.904177 854.589344 
z
" clip-path="url(#p2ebd5104ca)" style="fill: #8c564b"/>
   </g>
   <g id="patch_24">
    <path d="M 886.506143 877.7625 
L 929.159705 877.7625 
L 929.159705 853.374397 
L 886.506143 853.374397 
z
" clip-path="url(#p2ebd5104ca)" style="fill: #8c564b"/>
   </g>
   <g id="patch_25">
    <path d="M 1252.108108 877.7625 
L 1294.761671 877.7625 
L 1294.761671 841.99285 
L 1252.108108 841.99285 
z
" clip-path="url(#p2ebd5104ca)" style="fill: #8c564b"/>
   </g>
   <g id="patch_26">
    <path d="M 1617.710074 877.7625 
L 1660.363636 877.7625 
L 1660.363636 817.753817 
L 1617.710074 817.753817 
z
" clip-path="url(#p2ebd5104ca)" style="fill: #8c564b"/>
   </g>
   <g id="matplotlib.axis_1">
    <g id="xtick_1">
     <g id="line2d_1">
      <defs>
       <path id="m347b000557" d="M 0 0 
L 0 3.5 
" style="stroke: #000000; stroke-width: 0.8"/>
      </defs>
      <g>
       <use xlink:href="#m347b000557" x="435.597052" y="877.7625" style="stroke: #000000; stroke-width: 0.8"/>
      </g>
     </g>
     <g id="text_1">
      <!-- 10,000 -->
      <g transform="translate(418.101739 892.360937)scale(0.1 -0.1)">
       <defs>
        <path id="DejaVuSans-31" d="M 794 531 
L 1825 531 
L 1825 4091 
L 703 3866 
L 703 4441 
L 1819 4666 
L 2450 4666 
L 2450 531 
L 3481 531 
L 3481 0 
L 794 0 
L 794 531 
z
" transform="scale(0.015625)"/>
        <path id="DejaVuSans-30" d="M 2034 4250 
Q 1547 4250 1301 3770 
Q 1056 3291 1056 2328 
Q 1056 1369 1301 889 
Q 1547 409 2034 409 
Q 2525 409 2770 889 
Q 3016 1369 3016 2328 
Q 3016 3291 2770 3770 
Q 2525 4250 2034 4250 
z
M 2034 4750 
Q 2819 4750 3233 4129 
Q 3647 3509 3647 2328 
Q 3647 1150 3233 529 
Q 2819 -91 2034 -91 
Q 1250 -91 836 529 
Q 422 1150 422 2328 
Q 422 3509 836 4129 
Q 1250 4750 2034 4750 
z
" transform="scale(0.015625)"/>
        <path id="DejaVuSans-2c" d="M 750 794 
L 1409 794 
L 1409 256 
L 897 -744 
L 494 -744 
L 750 256 
L 750 794 
z
" transform="scale(0.015625)"/>
       </defs>
       <use xlink:href="#DejaVuSans-31"/>
       <use xlink:href="#DejaVuSans-30" x="63.623047"/>
       <use xlink:href="#DejaVuSans-2c" x="127.246094"/>
       <use xlink:href="#DejaVuSans-30" x="159.033203"/>
       <use xlink:href="#DejaVuSans-30" x="222.65625"/>
       <use xlink:href="#DejaVuSans-30" x="286.279297"/>
      </g>
     </g>
    </g>
    <g id="xtick_2">
     <g id="line2d_2">
      <g>
       <use xlink:href="#m347b000557" x="801.199017" y="877.7625" style="stroke: #000000; stroke-width: 0.8"/>
      </g>
     </g>
     <g id="text_2">
      <!-- 100,000 -->
      <g transform="translate(780.522455 892.360937)scale(0.1 -0.1)">
       <use xlink:href="#DejaVuSans-31"/>
       <use xlink:href="#DejaVuSans-30" x="63.623047"/>
       <use xlink:href="#DejaVuSans-30" x="127.246094"/>
       <use xlink:href="#DejaVuSans-2c" x="190.869141"/>
       <use xlink:href="#DejaVuSans-30" x="222.65625"/>
       <use xlink:href="#DejaVuSans-30" x="286.279297"/>
       <use xlink:href="#DejaVuSans-30" x="349.902344"/>
      </g>
     </g>
    </g>
    <g id="xtick_3">
     <g id="line2d_3">
      <g>
       <use xlink:href="#m347b000557" x="1166.800983" y="877.7625" style="stroke: #000000; stroke-width: 0.8"/>
      </g>
     </g>
     <g id="text_3">
      <!-- 1,000,000 -->
      <g transform="translate(1141.354108 892.360937)scale(0.1 -0.1)">
       <use xlink:href="#DejaVuSans-31"/>
       <use xlink:href="#DejaVuSans-2c" x="63.623047"/>
       <use xlink:href="#DejaVuSans-30" x="95.410156"/>
       <use xlink:href="#DejaVuSans-30" x="159.033203"/>
       <use xlink:href="#DejaVuSans-30" x="222.65625"/>
       <use xlink:href="#DejaVuSans-2c" x="286.279297"/>
       <use xlink:href="#DejaVuSans-30" x="318.066406"/>
       <use xlink:href="#DejaVuSans-30" x="381.689453"/>
       <use xlink:href="#DejaVuSans-30" x="445.3125"/>
      </g>
     </g>
    </g>
    <g id="xtick_4">
     <g id="line2d_4">
      <g>
       <use xlink:href="#m347b000557" x="1532.402948" y="877.7625" style="stroke: #000000; stroke-width: 0.8"/>
      </g>
     </g>
     <g id="text_4">
      <!-- 10,000,000 -->
      <g transform="translate(1503.774823 892.360937)scale(0.1 -0.1)">
       <use xlink:href="#DejaVuSans-31"/>
       <use xlink:href="#DejaVuSans-30" x="63.623047"/>
       <use xlink:href="#DejaVuSans-2c" x="127.246094"/>
       <use xlink:href="#DejaVuSans-30" x="159.033203"/>
       <use xlink:href="#DejaVuSans-30" x="222.65625"/>
       <use xlink:href="#DejaVuSans-30" x="286.279297"/>
       <use xlink:href="#DejaVuSans-2c" x="349.902344"/>
       <use xlink:href="#DejaVuSans-30" x="381.689453"/>
       <use xlink:href="#DejaVuSans-30" x="445.3125"/>
       <use xlink:href="#DejaVuSans-30" x="508.935547"/>
      </g>
     </g>
    </g>
    <g id="text_5">
     <!-- # search points -->
     <g transform="translate(944.669531 906.039062)scale(0.1 -0.1)">
      <defs>
       <path id="DejaVuSans-23" d="M 3272 2816 
L 2363 2816 
L 2100 1772 
L 3016 1772 
L 3272 2816 
z
M 2803 4594 
L 2478 3297 
L 3391 3297 
L 3719 4594 
L 4219 4594 
L 3897 3297 
L 4872 3297 
L 4872 2816 
L 3775 2816 
L 3519 1772 
L 4513 1772 
L 4513 1294 
L 3397 1294 
L 3072 0 
L 2572 0 
L 2894 1294 
L 1978 1294 
L 1656 0 
L 1153 0 
L 1478 1294 
L 494 1294 
L 494 1772 
L 1594 1772 
L 1856 2816 
L 850 2816 
L 850 3297 
L 1978 3297 
L 2297 4594 
L 2803 4594 
z
" transform="scale(0.015625)"/>
       <path id="DejaVuSans-20" transform="scale(0.015625)"/>
       <path id="DejaVuSans-73" d="M 2834 3397 
L 2834 2853 
Q 2591 2978 2328 3040 
Q 2066 3103 1784 3103 
Q 1356 3103 1142 2972 
Q 928 2841 928 2578 
Q 928 2378 1081 2264 
Q 1234 2150 1697 2047 
L 1894 2003 
Q 2506 1872 2764 1633 
Q 3022 1394 3022 966 
Q 3022 478 2636 193 
Q 2250 -91 1575 -91 
Q 1294 -91 989 -36 
Q 684 19 347 128 
L 347 722 
Q 666 556 975 473 
Q 1284 391 1588 391 
Q 1994 391 2212 530 
Q 2431 669 2431 922 
Q 2431 1156 2273 1281 
Q 2116 1406 1581 1522 
L 1381 1569 
Q 847 1681 609 1914 
Q 372 2147 372 2553 
Q 372 3047 722 3315 
Q 1072 3584 1716 3584 
Q 2034 3584 2315 3537 
Q 2597 3491 2834 3397 
z
" transform="scale(0.015625)"/>
       <path id="DejaVuSans-65" d="M 3597 1894 
L 3597 1613 
L 953 1613 
Q 991 1019 1311 708 
Q 1631 397 2203 397 
Q 2534 397 2845 478 
Q 3156 559 3463 722 
L 3463 178 
Q 3153 47 2828 -22 
Q 2503 -91 2169 -91 
Q 1331 -91 842 396 
Q 353 884 353 1716 
Q 353 2575 817 3079 
Q 1281 3584 2069 3584 
Q 2775 3584 3186 3129 
Q 3597 2675 3597 1894 
z
M 3022 2063 
Q 3016 2534 2758 2815 
Q 2500 3097 2075 3097 
Q 1594 3097 1305 2825 
Q 1016 2553 972 2059 
L 3022 2063 
z
" transform="scale(0.015625)"/>
       <path id="DejaVuSans-61" d="M 2194 1759 
Q 1497 1759 1228 1600 
Q 959 1441 959 1056 
Q 959 750 1161 570 
Q 1363 391 1709 391 
Q 2188 391 2477 730 
Q 2766 1069 2766 1631 
L 2766 1759 
L 2194 1759 
z
M 3341 1997 
L 3341 0 
L 2766 0 
L 2766 531 
Q 2569 213 2275 61 
Q 1981 -91 1556 -91 
Q 1019 -91 701 211 
Q 384 513 384 1019 
Q 384 1609 779 1909 
Q 1175 2209 1959 2209 
L 2766 2209 
L 2766 2266 
Q 2766 2663 2505 2880 
Q 2244 3097 1772 3097 
Q 1472 3097 1187 3025 
Q 903 2953 641 2809 
L 641 3341 
Q 956 3463 1253 3523 
Q 1550 3584 1831 3584 
Q 2591 3584 2966 3190 
Q 3341 2797 3341 1997 
z
" transform="scale(0.015625)"/>
       <path id="DejaVuSans-72" d="M 2631 2963 
Q 2534 3019 2420 3045 
Q 2306 3072 2169 3072 
Q 1681 3072 1420 2755 
Q 1159 2438 1159 1844 
L 1159 0 
L 581 0 
L 581 3500 
L 1159 3500 
L 1159 2956 
Q 1341 3275 1631 3429 
Q 1922 3584 2338 3584 
Q 2397 3584 2469 3576 
Q 2541 3569 2628 3553 
L 2631 2963 
z
" transform="scale(0.015625)"/>
       <path id="DejaVuSans-63" d="M 3122 3366 
L 3122 2828 
Q 2878 2963 2633 3030 
Q 2388 3097 2138 3097 
Q 1578 3097 1268 2742 
Q 959 2388 959 1747 
Q 959 1106 1268 751 
Q 1578 397 2138 397 
Q 2388 397 2633 464 
Q 2878 531 3122 666 
L 3122 134 
Q 2881 22 2623 -34 
Q 2366 -91 2075 -91 
Q 1284 -91 818 406 
Q 353 903 353 1747 
Q 353 2603 823 3093 
Q 1294 3584 2113 3584 
Q 2378 3584 2631 3529 
Q 2884 3475 3122 3366 
z
" transform="scale(0.015625)"/>
       <path id="DejaVuSans-68" d="M 3513 2113 
L 3513 0 
L 2938 0 
L 2938 2094 
Q 2938 2591 2744 2837 
Q 2550 3084 2163 3084 
Q 1697 3084 1428 2787 
Q 1159 2491 1159 1978 
L 1159 0 
L 581 0 
L 581 4863 
L 1159 4863 
L 1159 2956 
Q 1366 3272 1645 3428 
Q 1925 3584 2291 3584 
Q 2894 3584 3203 3211 
Q 3513 2838 3513 2113 
z
" transform="scale(0.015625)"/>
       <path id="DejaVuSans-70" d="M 1159 525 
L 1159 -1331 
L 581 -1331 
L 581 3500 
L 1159 3500 
L 1159 2969 
Q 1341 3281 1617 3432 
Q 1894 3584 2278 3584 
Q 2916 3584 3314 3078 
Q 3713 2572 3713 1747 
Q 3713 922 3314 415 
Q 2916 -91 2278 -91 
Q 1894 -91 1617 61 
Q 1341 213 1159 525 
z
M 3116 1747 
Q 3116 2381 2855 2742 
Q 2594 3103 2138 3103 
Q 1681 3103 1420 2742 
Q 1159 2381 1159 1747 
Q 1159 1113 1420 752 
Q 1681 391 2138 391 
Q 2594 391 2855 752 
Q 3116 1113 3116 1747 
z
" transform="scale(0.015625)"/>
       <path id="DejaVuSans-6f" d="M 1959 3097 
Q 1497 3097 1228 2736 
Q 959 2375 959 1747 
Q 959 1119 1226 758 
Q 1494 397 1959 397 
Q 2419 397 2687 759 
Q 2956 1122 2956 1747 
Q 2956 2369 2687 2733 
Q 2419 3097 1959 3097 
z
M 1959 3584 
Q 2709 3584 3137 3096 
Q 3566 2609 3566 1747 
Q 3566 888 3137 398 
Q 2709 -91 1959 -91 
Q 1206 -91 779 398 
Q 353 888 353 1747 
Q 353 2609 779 3096 
Q 1206 3584 1959 3584 
z
" transform="scale(0.015625)"/>
       <path id="DejaVuSans-69" d="M 603 3500 
L 1178 3500 
L 1178 0 
L 603 0 
L 603 3500 
z
M 603 4863 
L 1178 4863 
L 1178 4134 
L 603 4134 
L 603 4863 
z
" transform="scale(0.015625)"/>
       <path id="DejaVuSans-6e" d="M 3513 2113 
L 3513 0 
L 2938 0 
L 2938 2094 
Q 2938 2591 2744 2837 
Q 2550 3084 2163 3084 
Q 1697 3084 1428 2787 
Q 1159 2491 1159 1978 
L 1159 0 
L 581 0 
L 581 3500 
L 1159 3500 
L 1159 2956 
Q 1366 3272 1645 3428 
Q 1925 3584 2291 3584 
Q 2894 3584 3203 3211 
Q 3513 2838 3513 2113 
z
" transform="scale(0.015625)"/>
       <path id="DejaVuSans-74" d="M 1172 4494 
L 1172 3500 
L 2356 3500 
L 2356 3053 
L 1172 3053 
L 1172 1153 
Q 1172 725 1289 603 
Q 1406 481 1766 481 
L 2356 481 
L 2356 0 
L 1766 0 
Q 1100 0 847 248 
Q 594 497 594 1153 
L 594 3053 
L 172 3053 
L 172 3500 
L 594 3500 
L 594 4494 
L 1172 4494 
z
" transform="scale(0.015625)"/>
      </defs>
      <use xlink:href="#DejaVuSans-23"/>
      <use xlink:href="#DejaVuSans-20" x="83.789062"/>
      <use xlink:href="#DejaVuSans-73" x="115.576172"/>
      <use xlink:href="#DejaVuSans-65" x="167.675781"/>
      <use xlink:href="#DejaVuSans-61" x="229.199219"/>
      <use xlink:href="#DejaVuSans-72" x="290.478516"/>
      <use xlink:href="#DejaVuSans-63" x="329.341797"/>
      <use xlink:href="#DejaVuSans-68" x="384.322266"/>
      <use xlink:href="#DejaVuSans-20" x="447.701172"/>
      <use xlink:href="#DejaVuSans-70" x="479.488281"/>
      <use xlink:href="#DejaVuSans-6f" x="542.964844"/>
      <use xlink:href="#DejaVuSans-69" x="604.146484"/>
      <use xlink:href="#DejaVuSans-6e" x="631.929688"/>
      <use xlink:href="#DejaVuSans-74" x="695.308594"/>
      <use xlink:href="#DejaVuSans-73" x="734.517578"/>
     </g>
    </g>
   </g>
   <g id="matplotlib.axis_2">
    <g id="ytick_1">
     <g id="line2d_5">
      <defs>
       <path id="m7ec2473de7" d="M 0 0 
L -3.5 0 
" style="stroke: #000000; stroke-width: 0.8"/>
      </defs>
      <g>
       <use xlink:href="#m7ec2473de7" x="240" y="877.7625" style="stroke: #000000; stroke-width: 0.8"/>
      </g>
     </g>
     <g id="text_6">
      <!-- 0 -->
      <g transform="translate(226.6375 881.561719)scale(0.1 -0.1)">
       <use xlink:href="#DejaVuSans-30"/>
      </g>
     </g>
    </g>
    <g id="ytick_2">
     <g id="line2d_6">
      <g>
       <use xlink:href="#m7ec2473de7" x="240" y="783.711785" style="stroke: #000000; stroke-width: 0.8"/>
      </g>
     </g>
     <g id="text_7">
      <!-- 10 -->
      <g transform="translate(220.275 787.511004)scale(0.1 -0.1)">
       <use xlink:href="#DejaVuSans-31"/>
       <use xlink:href="#DejaVuSans-30" x="63.623047"/>
      </g>
     </g>
    </g>
    <g id="ytick_3">
     <g id="line2d_7">
      <g>
       <use xlink:href="#m7ec2473de7" x="240" y="689.66107" style="stroke: #000000; stroke-width: 0.8"/>
      </g>
     </g>
     <g id="text_8">
      <!-- 20 -->
      <g transform="translate(220.275 693.460288)scale(0.1 -0.1)">
       <defs>
        <path id="DejaVuSans-32" d="M 1228 531 
L 3431 531 
L 3431 0 
L 469 0 
L 469 531 
Q 828 903 1448 1529 
Q 2069 2156 2228 2338 
Q 2531 2678 2651 2914 
Q 2772 3150 2772 3378 
Q 2772 3750 2511 3984 
Q 2250 4219 1831 4219 
Q 1534 4219 1204 4116 
Q 875 4013 500 3803 
L 500 4441 
Q 881 4594 1212 4672 
Q 1544 4750 1819 4750 
Q 2544 4750 2975 4387 
Q 3406 4025 3406 3419 
Q 3406 3131 3298 2873 
Q 3191 2616 2906 2266 
Q 2828 2175 2409 1742 
Q 1991 1309 1228 531 
z
" transform="scale(0.015625)"/>
       </defs>
       <use xlink:href="#DejaVuSans-32"/>
       <use xlink:href="#DejaVuSans-30" x="63.623047"/>
      </g>
     </g>
    </g>
    <g id="ytick_4">
     <g id="line2d_8">
      <g>
       <use xlink:href="#m7ec2473de7" x="240" y="595.610354" style="stroke: #000000; stroke-width: 0.8"/>
      </g>
     </g>
     <g id="text_9">
      <!-- 30 -->
      <g transform="translate(220.275 599.409573)scale(0.1 -0.1)">
       <defs>
        <path id="DejaVuSans-33" d="M 2597 2516 
Q 3050 2419 3304 2112 
Q 3559 1806 3559 1356 
Q 3559 666 3084 287 
Q 2609 -91 1734 -91 
Q 1441 -91 1130 -33 
Q 819 25 488 141 
L 488 750 
Q 750 597 1062 519 
Q 1375 441 1716 441 
Q 2309 441 2620 675 
Q 2931 909 2931 1356 
Q 2931 1769 2642 2001 
Q 2353 2234 1838 2234 
L 1294 2234 
L 1294 2753 
L 1863 2753 
Q 2328 2753 2575 2939 
Q 2822 3125 2822 3475 
Q 2822 3834 2567 4026 
Q 2313 4219 1838 4219 
Q 1578 4219 1281 4162 
Q 984 4106 628 3988 
L 628 4550 
Q 988 4650 1302 4700 
Q 1616 4750 1894 4750 
Q 2613 4750 3031 4423 
Q 3450 4097 3450 3541 
Q 3450 3153 3228 2886 
Q 3006 2619 2597 2516 
z
" transform="scale(0.015625)"/>
       </defs>
       <use xlink:href="#DejaVuSans-33"/>
       <use xlink:href="#DejaVuSans-30" x="63.623047"/>
      </g>
     </g>
    </g>
    <g id="ytick_5">
     <g id="line2d_9">
      <g>
       <use xlink:href="#m7ec2473de7" x="240" y="501.559639" style="stroke: #000000; stroke-width: 0.8"/>
      </g>
     </g>
     <g id="text_10">
      <!-- 40 -->
      <g transform="translate(220.275 505.358858)scale(0.1 -0.1)">
       <defs>
        <path id="DejaVuSans-34" d="M 2419 4116 
L 825 1625 
L 2419 1625 
L 2419 4116 
z
M 2253 4666 
L 3047 4666 
L 3047 1625 
L 3713 1625 
L 3713 1100 
L 3047 1100 
L 3047 0 
L 2419 0 
L 2419 1100 
L 313 1100 
L 313 1709 
L 2253 4666 
z
" transform="scale(0.015625)"/>
       </defs>
       <use xlink:href="#DejaVuSans-34"/>
       <use xlink:href="#DejaVuSans-30" x="63.623047"/>
      </g>
     </g>
    </g>
    <g id="ytick_6">
     <g id="line2d_10">
      <g>
       <use xlink:href="#m7ec2473de7" x="240" y="407.508924" style="stroke: #000000; stroke-width: 0.8"/>
      </g>
     </g>
     <g id="text_11">
      <!-- 50 -->
      <g transform="translate(220.275 411.308143)scale(0.1 -0.1)">
       <defs>
        <path id="DejaVuSans-35" d="M 691 4666 
L 3169 4666 
L 3169 4134 
L 1269 4134 
L 1269 2991 
Q 1406 3038 1543 3061 
Q 1681 3084 1819 3084 
Q 2600 3084 3056 2656 
Q 3513 2228 3513 1497 
Q 3513 744 3044 326 
Q 2575 -91 1722 -91 
Q 1428 -91 1123 -41 
Q 819 9 494 109 
L 494 744 
Q 775 591 1075 516 
Q 1375 441 1709 441 
Q 2250 441 2565 725 
Q 2881 1009 2881 1497 
Q 2881 1984 2565 2268 
Q 2250 2553 1709 2553 
Q 1456 2553 1204 2497 
Q 953 2441 691 2322 
L 691 4666 
z
" transform="scale(0.015625)"/>
       </defs>
       <use xlink:href="#DejaVuSans-35"/>
       <use xlink:href="#DejaVuSans-30" x="63.623047"/>
      </g>
     </g>
    </g>
    <g id="ytick_7">
     <g id="line2d_11">
      <g>
       <use xlink:href="#m7ec2473de7" x="240" y="313.458209" style="stroke: #000000; stroke-width: 0.8"/>
      </g>
     </g>
     <g id="text_12">
      <!-- 60 -->
      <g transform="translate(220.275 317.257427)scale(0.1 -0.1)">
       <defs>
        <path id="DejaVuSans-36" d="M 2113 2584 
Q 1688 2584 1439 2293 
Q 1191 2003 1191 1497 
Q 1191 994 1439 701 
Q 1688 409 2113 409 
Q 2538 409 2786 701 
Q 3034 994 3034 1497 
Q 3034 2003 2786 2293 
Q 2538 2584 2113 2584 
z
M 3366 4563 
L 3366 3988 
Q 3128 4100 2886 4159 
Q 2644 4219 2406 4219 
Q 1781 4219 1451 3797 
Q 1122 3375 1075 2522 
Q 1259 2794 1537 2939 
Q 1816 3084 2150 3084 
Q 2853 3084 3261 2657 
Q 3669 2231 3669 1497 
Q 3669 778 3244 343 
Q 2819 -91 2113 -91 
Q 1303 -91 875 529 
Q 447 1150 447 2328 
Q 447 3434 972 4092 
Q 1497 4750 2381 4750 
Q 2619 4750 2861 4703 
Q 3103 4656 3366 4563 
z
" transform="scale(0.015625)"/>
       </defs>
       <use xlink:href="#DejaVuSans-36"/>
       <use xlink:href="#DejaVuSans-30" x="63.623047"/>
      </g>
     </g>
    </g>
    <g id="ytick_8">
     <g id="line2d_12">
      <g>
       <use xlink:href="#m7ec2473de7" x="240" y="219.407493" style="stroke: #000000; stroke-width: 0.8"/>
      </g>
     </g>
     <g id="text_13">
      <!-- 70 -->
      <g transform="translate(220.275 223.206712)scale(0.1 -0.1)">
       <defs>
        <path id="DejaVuSans-37" d="M 525 4666 
L 3525 4666 
L 3525 4397 
L 1831 0 
L 1172 0 
L 2766 4134 
L 525 4134 
L 525 4666 
z
" transform="scale(0.015625)"/>
       </defs>
       <use xlink:href="#DejaVuSans-37"/>
       <use xlink:href="#DejaVuSans-30" x="63.623047"/>
      </g>
     </g>
    </g>
    <g id="ytick_9">
     <g id="line2d_13">
      <g>
       <use xlink:href="#m7ec2473de7" x="240" y="125.356778" style="stroke: #000000; stroke-width: 0.8"/>
      </g>
     </g>
     <g id="text_14">
      <!-- 80 -->
      <g transform="translate(220.275 129.155997)scale(0.1 -0.1)">
       <defs>
        <path id="DejaVuSans-38" d="M 2034 2216 
Q 1584 2216 1326 1975 
Q 1069 1734 1069 1313 
Q 1069 891 1326 650 
Q 1584 409 2034 409 
Q 2484 409 2743 651 
Q 3003 894 3003 1313 
Q 3003 1734 2745 1975 
Q 2488 2216 2034 2216 
z
M 1403 2484 
Q 997 2584 770 2862 
Q 544 3141 544 3541 
Q 544 4100 942 4425 
Q 1341 4750 2034 4750 
Q 2731 4750 3128 4425 
Q 3525 4100 3525 3541 
Q 3525 3141 3298 2862 
Q 3072 2584 2669 2484 
Q 3125 2378 3379 2068 
Q 3634 1759 3634 1313 
Q 3634 634 3220 271 
Q 2806 -91 2034 -91 
Q 1263 -91 848 271 
Q 434 634 434 1313 
Q 434 1759 690 2068 
Q 947 2378 1403 2484 
z
M 1172 3481 
Q 1172 3119 1398 2916 
Q 1625 2713 2034 2713 
Q 2441 2713 2670 2916 
Q 2900 3119 2900 3481 
Q 2900 3844 2670 4047 
Q 2441 4250 2034 4250 
Q 1625 4250 1398 4047 
Q 1172 3844 1172 3481 
z
" transform="scale(0.015625)"/>
       </defs>
       <use xlink:href="#DejaVuSans-38"/>
       <use xlink:href="#DejaVuSans-30" x="63.623047"/>
      </g>
     </g>
    </g>
    <g id="text_15">
     <!-- Time (ms) -->
     <g transform="translate(214.195312 523.255469)rotate(-90)scale(0.1 -0.1)">
      <defs>
       <path id="DejaVuSans-54" d="M -19 4666 
L 3928 4666 
L 3928 4134 
L 2272 4134 
L 2272 0 
L 1638 0 
L 1638 4134 
L -19 4134 
L -19 4666 
z
" transform="scale(0.015625)"/>
       <path id="DejaVuSans-6d" d="M 3328 2828 
Q 3544 3216 3844 3400 
Q 4144 3584 4550 3584 
Q 5097 3584 5394 3201 
Q 5691 2819 5691 2113 
L 5691 0 
L 5113 0 
L 5113 2094 
Q 5113 2597 4934 2840 
Q 4756 3084 4391 3084 
Q 3944 3084 3684 2787 
Q 3425 2491 3425 1978 
L 3425 0 
L 2847 0 
L 2847 2094 
Q 2847 2600 2669 2842 
Q 2491 3084 2119 3084 
Q 1678 3084 1418 2786 
Q 1159 2488 1159 1978 
L 1159 0 
L 581 0 
L 581 3500 
L 1159 3500 
L 1159 2956 
Q 1356 3278 1631 3431 
Q 1906 3584 2284 3584 
Q 2666 3584 2933 3390 
Q 3200 3197 3328 2828 
z
" transform="scale(0.015625)"/>
       <path id="DejaVuSans-28" d="M 1984 4856 
Q 1566 4138 1362 3434 
Q 1159 2731 1159 2009 
Q 1159 1288 1364 580 
Q 1569 -128 1984 -844 
L 1484 -844 
Q 1016 -109 783 600 
Q 550 1309 550 2009 
Q 550 2706 781 3412 
Q 1013 4119 1484 4856 
L 1984 4856 
z
" transform="scale(0.015625)"/>
       <path id="DejaVuSans-29" d="M 513 4856 
L 1013 4856 
Q 1481 4119 1714 3412 
Q 1947 2706 1947 2009 
Q 1947 1309 1714 600 
Q 1481 -109 1013 -844 
L 513 -844 
Q 928 -128 1133 580 
Q 1338 1288 1338 2009 
Q 1338 2731 1133 3434 
Q 928 4138 513 4856 
z
" transform="scale(0.015625)"/>
      </defs>
      <use xlink:href="#DejaVuSans-54"/>
      <use xlink:href="#DejaVuSans-69" x="57.958984"/>
      <use xlink:href="#DejaVuSans-6d" x="85.742188"/>
      <use xlink:href="#DejaVuSans-65" x="183.154297"/>
      <use xlink:href="#DejaVuSans-20" x="244.677734"/>
      <use xlink:href="#DejaVuSans-28" x="276.464844"/>
      <use xlink:href="#DejaVuSans-6d" x="315.478516"/>
      <use xlink:href="#DejaVuSans-73" x="412.890625"/>
      <use xlink:href="#DejaVuSans-29" x="464.990234"/>
     </g>
    </g>
   </g>
   <g id="patch_27">
    <path d="M 240 877.7625 
L 240 118.35 
" style="fill: none; stroke: #000000; stroke-width: 0.8; stroke-linejoin: miter; stroke-linecap: square"/>
   </g>
   <g id="patch_28">
    <path d="M 1728 877.7625 
L 1728 118.35 
" style="fill: none; stroke: #000000; stroke-width: 0.8; stroke-linejoin: miter; stroke-linecap: square"/>
   </g>
   <g id="patch_29">
    <path d="M 240 877.7625 
L 1728 877.7625 
" style="fill: none; stroke: #000000; stroke-width: 0.8; stroke-linejoin: miter; stroke-linecap: square"/>
   </g>
   <g id="patch_30">
    <path d="M 240 118.35 
L 1728 118.35 
" style="fill: none; stroke: #000000; stroke-width: 0.8; stroke-linejoin: miter; stroke-linecap: square"/>
   </g>
   <g id="text_16">
    <!-- 52.10 -->
    <g transform="translate(314.649082 385.678586)scale(0.1 -0.1)">
     <defs>
      <path id="DejaVuSans-2e" d="M 684 794 
L 1344 794 
L 1344 0 
L 684 0 
L 684 794 
z
" transform="scale(0.015625)"/>
     </defs>
     <use xlink:href="#DejaVuSans-35"/>
     <use xlink:href="#DejaVuSans-32" x="63.623047"/>
     <use xlink:href="#DejaVuSans-2e" x="127.246094"/>
     <use xlink:href="#DejaVuSans-31" x="159.033203"/>
     <use xlink:href="#DejaVuSans-30" x="222.65625"/>
    </g>
   </g>
   <g id="text_17">
    <!-- 56.20 -->
    <g transform="translate(680.251048 347.117793)scale(0.1 -0.1)">
     <use xlink:href="#DejaVuSans-35"/>
     <use xlink:href="#DejaVuSans-36" x="63.623047"/>
     <use xlink:href="#DejaVuSans-2e" x="127.246094"/>
     <use xlink:href="#DejaVuSans-32" x="159.033203"/>
     <use xlink:href="#DejaVuSans-30" x="222.65625"/>
    </g>
   </g>
   <g id="text_18">
    <!-- 68.30 -->
    <g transform="translate(1045.853014 233.316428)scale(0.1 -0.1)">
     <use xlink:href="#DejaVuSans-36"/>
     <use xlink:href="#DejaVuSans-38" x="63.623047"/>
     <use xlink:href="#DejaVuSans-2e" x="127.246094"/>
     <use xlink:href="#DejaVuSans-33" x="159.033203"/>
     <use xlink:href="#DejaVuSans-30" x="222.65625"/>
    </g>
   </g>
   <g id="text_19">
    <!-- 76.90 -->
    <g transform="translate(1411.454979 152.432813)scale(0.1 -0.1)">
     <defs>
      <path id="DejaVuSans-39" d="M 703 97 
L 703 672 
Q 941 559 1184 500 
Q 1428 441 1663 441 
Q 2288 441 2617 861 
Q 2947 1281 2994 2138 
Q 2813 1869 2534 1725 
Q 2256 1581 1919 1581 
Q 1219 1581 811 2004 
Q 403 2428 403 3163 
Q 403 3881 828 4315 
Q 1253 4750 1959 4750 
Q 2769 4750 3195 4129 
Q 3622 3509 3622 2328 
Q 3622 1225 3098 567 
Q 2575 -91 1691 -91 
Q 1453 -91 1209 -44 
Q 966 3 703 97 
z
M 1959 2075 
Q 2384 2075 2632 2365 
Q 2881 2656 2881 3163 
Q 2881 3666 2632 3958 
Q 2384 4250 1959 4250 
Q 1534 4250 1286 3958 
Q 1038 3666 1038 3163 
Q 1038 2656 1286 2365 
Q 1534 2075 1959 2075 
z
" transform="scale(0.015625)"/>
     </defs>
     <use xlink:href="#DejaVuSans-37"/>
     <use xlink:href="#DejaVuSans-36" x="63.623047"/>
     <use xlink:href="#DejaVuSans-2e" x="127.246094"/>
     <use xlink:href="#DejaVuSans-39" x="159.033203"/>
     <use xlink:href="#DejaVuSans-30" x="222.65625"/>
    </g>
   </g>
   <g id="text_20">
    <!-- 22.90 -->
    <g transform="translate(357.302645 660.306675)scale(0.1 -0.1)">
     <use xlink:href="#DejaVuSans-32"/>
     <use xlink:href="#DejaVuSans-32" x="63.623047"/>
     <use xlink:href="#DejaVuSans-2e" x="127.246094"/>
     <use xlink:href="#DejaVuSans-39" x="159.033203"/>
     <use xlink:href="#DejaVuSans-30" x="222.65625"/>
    </g>
   </g>
   <g id="text_21">
    <!-- 26.40 -->
    <g transform="translate(722.904611 627.388924)scale(0.1 -0.1)">
     <use xlink:href="#DejaVuSans-32"/>
     <use xlink:href="#DejaVuSans-36" x="63.623047"/>
     <use xlink:href="#DejaVuSans-2e" x="127.246094"/>
     <use xlink:href="#DejaVuSans-34" x="159.033203"/>
     <use xlink:href="#DejaVuSans-30" x="222.65625"/>
    </g>
   </g>
   <g id="text_22">
    <!-- 57.50 -->
    <g transform="translate(1088.506576 334.8912)scale(0.1 -0.1)">
     <use xlink:href="#DejaVuSans-35"/>
     <use xlink:href="#DejaVuSans-37" x="63.623047"/>
     <use xlink:href="#DejaVuSans-2e" x="127.246094"/>
     <use xlink:href="#DejaVuSans-35" x="159.033203"/>
     <use xlink:href="#DejaVuSans-30" x="222.65625"/>
    </g>
   </g>
   <g id="text_23">
    <!-- 75.00 -->
    <g transform="translate(1454.108542 170.302448)scale(0.1 -0.1)">
     <use xlink:href="#DejaVuSans-37"/>
     <use xlink:href="#DejaVuSans-35" x="63.623047"/>
     <use xlink:href="#DejaVuSans-2e" x="127.246094"/>
     <use xlink:href="#DejaVuSans-30" x="159.033203"/>
     <use xlink:href="#DejaVuSans-30" x="222.65625"/>
    </g>
   </g>
   <g id="text_24">
    <!-- 19.56 -->
    <g transform="translate(399.956208 691.691398)scale(0.1 -0.1)">
     <use xlink:href="#DejaVuSans-31"/>
     <use xlink:href="#DejaVuSans-39" x="63.623047"/>
     <use xlink:href="#DejaVuSans-2e" x="127.246094"/>
     <use xlink:href="#DejaVuSans-35" x="159.033203"/>
     <use xlink:href="#DejaVuSans-36" x="222.65625"/>
    </g>
   </g>
   <g id="text_25">
    <!-- 21.13 -->
    <g transform="translate(765.558173 676.911328)scale(0.1 -0.1)">
     <use xlink:href="#DejaVuSans-32"/>
     <use xlink:href="#DejaVuSans-31" x="63.623047"/>
     <use xlink:href="#DejaVuSans-2e" x="127.246094"/>
     <use xlink:href="#DejaVuSans-31" x="159.033203"/>
     <use xlink:href="#DejaVuSans-33" x="222.65625"/>
    </g>
   </g>
   <g id="text_26">
    <!-- 24.06 -->
    <g transform="translate(1131.160139 649.395851)scale(0.1 -0.1)">
     <use xlink:href="#DejaVuSans-32"/>
     <use xlink:href="#DejaVuSans-34" x="63.623047"/>
     <use xlink:href="#DejaVuSans-2e" x="127.246094"/>
     <use xlink:href="#DejaVuSans-30" x="159.033203"/>
     <use xlink:href="#DejaVuSans-36" x="222.65625"/>
    </g>
   </g>
   <g id="text_27">
    <!-- 29.12 -->
    <g transform="translate(1496.762105 601.778915)scale(0.1 -0.1)">
     <use xlink:href="#DejaVuSans-32"/>
     <use xlink:href="#DejaVuSans-39" x="63.623047"/>
     <use xlink:href="#DejaVuSans-2e" x="127.246094"/>
     <use xlink:href="#DejaVuSans-31" x="159.033203"/>
     <use xlink:href="#DejaVuSans-32" x="222.65625"/>
    </g>
   </g>
   <g id="text_28">
    <!-- 15.06 -->
    <g transform="translate(442.60977 734.043376)scale(0.1 -0.1)">
     <use xlink:href="#DejaVuSans-31"/>
     <use xlink:href="#DejaVuSans-35" x="63.623047"/>
     <use xlink:href="#DejaVuSans-2e" x="127.246094"/>
     <use xlink:href="#DejaVuSans-30" x="159.033203"/>
     <use xlink:href="#DejaVuSans-36" x="222.65625"/>
    </g>
   </g>
   <g id="text_29">
    <!-- 16.30 -->
    <g transform="translate(808.211736 722.335002)scale(0.1 -0.1)">
     <use xlink:href="#DejaVuSans-31"/>
     <use xlink:href="#DejaVuSans-36" x="63.623047"/>
     <use xlink:href="#DejaVuSans-2e" x="127.246094"/>
     <use xlink:href="#DejaVuSans-33" x="159.033203"/>
     <use xlink:href="#DejaVuSans-30" x="222.65625"/>
    </g>
   </g>
   <g id="text_30">
    <!-- 23.20 -->
    <g transform="translate(1173.813702 657.485153)scale(0.1 -0.1)">
     <use xlink:href="#DejaVuSans-32"/>
     <use xlink:href="#DejaVuSans-33" x="63.623047"/>
     <use xlink:href="#DejaVuSans-2e" x="127.246094"/>
     <use xlink:href="#DejaVuSans-32" x="159.033203"/>
     <use xlink:href="#DejaVuSans-30" x="222.65625"/>
    </g>
   </g>
   <g id="text_31">
    <!-- 30.89 -->
    <g transform="translate(1539.415667 585.197773)scale(0.1 -0.1)">
     <use xlink:href="#DejaVuSans-33"/>
     <use xlink:href="#DejaVuSans-30" x="63.623047"/>
     <use xlink:href="#DejaVuSans-2e" x="127.246094"/>
     <use xlink:href="#DejaVuSans-38" x="159.033203"/>
     <use xlink:href="#DejaVuSans-39" x="222.65625"/>
    </g>
   </g>
   <g id="text_32">
    <!-- 5.79 -->
    <g transform="translate(488.444583 821.256604)scale(0.1 -0.1)">
     <use xlink:href="#DejaVuSans-35"/>
     <use xlink:href="#DejaVuSans-2e" x="63.623047"/>
     <use xlink:href="#DejaVuSans-37" x="95.410156"/>
     <use xlink:href="#DejaVuSans-39" x="159.033203"/>
    </g>
   </g>
   <g id="text_33">
    <!-- 7.30 -->
    <g transform="translate(854.046549 807.023909)scale(0.1 -0.1)">
     <use xlink:href="#DejaVuSans-37"/>
     <use xlink:href="#DejaVuSans-2e" x="63.623047"/>
     <use xlink:href="#DejaVuSans-33" x="95.410156"/>
     <use xlink:href="#DejaVuSans-30" x="159.033203"/>
    </g>
   </g>
   <g id="text_34">
    <!-- 11.91 -->
    <g transform="translate(1216.467264 763.706031)scale(0.1 -0.1)">
     <use xlink:href="#DejaVuSans-31"/>
     <use xlink:href="#DejaVuSans-31" x="63.623047"/>
     <use xlink:href="#DejaVuSans-2e" x="127.246094"/>
     <use xlink:href="#DejaVuSans-39" x="159.033203"/>
     <use xlink:href="#DejaVuSans-31" x="222.65625"/>
    </g>
   </g>
   <g id="text_35">
    <!-- 19.96 -->
    <g transform="translate(1582.06923 687.978276)scale(0.1 -0.1)">
     <use xlink:href="#DejaVuSans-31"/>
     <use xlink:href="#DejaVuSans-39" x="63.623047"/>
     <use xlink:href="#DejaVuSans-2e" x="127.246094"/>
     <use xlink:href="#DejaVuSans-39" x="159.033203"/>
     <use xlink:href="#DejaVuSans-36" x="222.65625"/>
    </g>
   </g>
   <g id="text_36">
    <!-- 2.46 -->
    <g transform="translate(531.098146 852.509657)scale(0.1 -0.1)">
     <use xlink:href="#DejaVuSans-32"/>
     <use xlink:href="#DejaVuSans-2e" x="63.623047"/>
     <use xlink:href="#DejaVuSans-34" x="95.410156"/>
     <use xlink:href="#DejaVuSans-36" x="159.033203"/>
    </g>
   </g>
   <g id="text_37">
    <!-- 2.59 -->
    <g transform="translate(896.700111 851.29471)scale(0.1 -0.1)">
     <use xlink:href="#DejaVuSans-32"/>
     <use xlink:href="#DejaVuSans-2e" x="63.623047"/>
     <use xlink:href="#DejaVuSans-35" x="95.410156"/>
     <use xlink:href="#DejaVuSans-39" x="159.033203"/>
    </g>
   </g>
   <g id="text_38">
    <!-- 3.80 -->
    <g transform="translate(1262.302077 839.913162)scale(0.1 -0.1)">
     <use xlink:href="#DejaVuSans-33"/>
     <use xlink:href="#DejaVuSans-2e" x="63.623047"/>
     <use xlink:href="#DejaVuSans-38" x="95.410156"/>
     <use xlink:href="#DejaVuSans-30" x="159.033203"/>
    </g>
   </g>
   <g id="text_39">
    <!-- 6.38 -->
    <g transform="translate(1627.904043 815.67413)scale(0.1 -0.1)">
     <use xlink:href="#DejaVuSans-36"/>
     <use xlink:href="#DejaVuSans-2e" x="63.623047"/>
     <use xlink:href="#DejaVuSans-33" x="95.410156"/>
     <use xlink:href="#DejaVuSans-38" x="159.033203"/>
    </g>
   </g>
   <g id="legend_1">
    <g id="patch_31">
     <path d="M 247 214.975 
L 491.384375 214.975 
Q 493.384375 214.975 493.384375 212.975 
L 493.384375 125.35 
Q 493.384375 123.35 491.384375 123.35 
L 247 123.35 
Q 245 123.35 245 125.35 
L 245 212.975 
Q 245 214.975 247 214.975 
z
" style="fill: #ffffff; opacity: 0.8; stroke: #cccccc; stroke-linejoin: miter"/>
    </g>
    <g id="patch_32">
     <path d="M 249 134.948438 
L 269 134.948438 
L 269 127.948438 
L 249 127.948438 
z
" style="fill: #1f77b4"/>
    </g>
    <g id="text_40">
     <!-- Core i5 6300HQ - KdTreeFLANN -->
     <g transform="translate(277 134.948438)scale(0.1 -0.1)">
      <defs>
       <path id="DejaVuSans-43" d="M 4122 4306 
L 4122 3641 
Q 3803 3938 3442 4084 
Q 3081 4231 2675 4231 
Q 1875 4231 1450 3742 
Q 1025 3253 1025 2328 
Q 1025 1406 1450 917 
Q 1875 428 2675 428 
Q 3081 428 3442 575 
Q 3803 722 4122 1019 
L 4122 359 
Q 3791 134 3420 21 
Q 3050 -91 2638 -91 
Q 1578 -91 968 557 
Q 359 1206 359 2328 
Q 359 3453 968 4101 
Q 1578 4750 2638 4750 
Q 3056 4750 3426 4639 
Q 3797 4528 4122 4306 
z
" transform="scale(0.015625)"/>
       <path id="DejaVuSans-48" d="M 628 4666 
L 1259 4666 
L 1259 2753 
L 3553 2753 
L 3553 4666 
L 4184 4666 
L 4184 0 
L 3553 0 
L 3553 2222 
L 1259 2222 
L 1259 0 
L 628 0 
L 628 4666 
z
" transform="scale(0.015625)"/>
       <path id="DejaVuSans-51" d="M 2522 4238 
Q 1834 4238 1429 3725 
Q 1025 3213 1025 2328 
Q 1025 1447 1429 934 
Q 1834 422 2522 422 
Q 3209 422 3611 934 
Q 4013 1447 4013 2328 
Q 4013 3213 3611 3725 
Q 3209 4238 2522 4238 
z
M 3406 84 
L 4238 -825 
L 3475 -825 
L 2784 -78 
Q 2681 -84 2626 -87 
Q 2572 -91 2522 -91 
Q 1538 -91 948 567 
Q 359 1225 359 2328 
Q 359 3434 948 4092 
Q 1538 4750 2522 4750 
Q 3503 4750 4090 4092 
Q 4678 3434 4678 2328 
Q 4678 1516 4351 937 
Q 4025 359 3406 84 
z
" transform="scale(0.015625)"/>
       <path id="DejaVuSans-2d" d="M 313 2009 
L 1997 2009 
L 1997 1497 
L 313 1497 
L 313 2009 
z
" transform="scale(0.015625)"/>
       <path id="DejaVuSans-4b" d="M 628 4666 
L 1259 4666 
L 1259 2694 
L 3353 4666 
L 4166 4666 
L 1850 2491 
L 4331 0 
L 3500 0 
L 1259 2247 
L 1259 0 
L 628 0 
L 628 4666 
z
" transform="scale(0.015625)"/>
       <path id="DejaVuSans-64" d="M 2906 2969 
L 2906 4863 
L 3481 4863 
L 3481 0 
L 2906 0 
L 2906 525 
Q 2725 213 2448 61 
Q 2172 -91 1784 -91 
Q 1150 -91 751 415 
Q 353 922 353 1747 
Q 353 2572 751 3078 
Q 1150 3584 1784 3584 
Q 2172 3584 2448 3432 
Q 2725 3281 2906 2969 
z
M 947 1747 
Q 947 1113 1208 752 
Q 1469 391 1925 391 
Q 2381 391 2643 752 
Q 2906 1113 2906 1747 
Q 2906 2381 2643 2742 
Q 2381 3103 1925 3103 
Q 1469 3103 1208 2742 
Q 947 2381 947 1747 
z
" transform="scale(0.015625)"/>
       <path id="DejaVuSans-46" d="M 628 4666 
L 3309 4666 
L 3309 4134 
L 1259 4134 
L 1259 2759 
L 3109 2759 
L 3109 2228 
L 1259 2228 
L 1259 0 
L 628 0 
L 628 4666 
z
" transform="scale(0.015625)"/>
       <path id="DejaVuSans-4c" d="M 628 4666 
L 1259 4666 
L 1259 531 
L 3531 531 
L 3531 0 
L 628 0 
L 628 4666 
z
" transform="scale(0.015625)"/>
       <path id="DejaVuSans-41" d="M 2188 4044 
L 1331 1722 
L 3047 1722 
L 2188 4044 
z
M 1831 4666 
L 2547 4666 
L 4325 0 
L 3669 0 
L 3244 1197 
L 1141 1197 
L 716 0 
L 50 0 
L 1831 4666 
z
" transform="scale(0.015625)"/>
       <path id="DejaVuSans-4e" d="M 628 4666 
L 1478 4666 
L 3547 763 
L 3547 4666 
L 4159 4666 
L 4159 0 
L 3309 0 
L 1241 3903 
L 1241 0 
L 628 0 
L 628 4666 
z
" transform="scale(0.015625)"/>
      </defs>
      <use xlink:href="#DejaVuSans-43"/>
      <use xlink:href="#DejaVuSans-6f" x="69.824219"/>
      <use xlink:href="#DejaVuSans-72" x="131.005859"/>
      <use xlink:href="#DejaVuSans-65" x="169.869141"/>
      <use xlink:href="#DejaVuSans-20" x="231.392578"/>
      <use xlink:href="#DejaVuSans-69" x="263.179688"/>
      <use xlink:href="#DejaVuSans-35" x="290.962891"/>
      <use xlink:href="#DejaVuSans-20" x="354.585938"/>
      <use xlink:href="#DejaVuSans-36" x="386.373047"/>
      <use xlink:href="#DejaVuSans-33" x="449.996094"/>
      <use xlink:href="#DejaVuSans-30" x="513.619141"/>
      <use xlink:href="#DejaVuSans-30" x="577.242188"/>
      <use xlink:href="#DejaVuSans-48" x="640.865234"/>
      <use xlink:href="#DejaVuSans-51" x="716.060547"/>
      <use xlink:href="#DejaVuSans-20" x="794.771484"/>
      <use xlink:href="#DejaVuSans-2d" x="826.558594"/>
      <use xlink:href="#DejaVuSans-20" x="862.642578"/>
      <use xlink:href="#DejaVuSans-4b" x="894.429688"/>
      <use xlink:href="#DejaVuSans-64" x="960.005859"/>
      <use xlink:href="#DejaVuSans-54" x="1023.482422"/>
      <use xlink:href="#DejaVuSans-72" x="1069.816406"/>
      <use xlink:href="#DejaVuSans-65" x="1108.679688"/>
      <use xlink:href="#DejaVuSans-65" x="1170.203125"/>
      <use xlink:href="#DejaVuSans-46" x="1231.726562"/>
      <use xlink:href="#DejaVuSans-4c" x="1289.246094"/>
      <use xlink:href="#DejaVuSans-41" x="1347.208984"/>
      <use xlink:href="#DejaVuSans-4e" x="1415.617188"/>
      <use xlink:href="#DejaVuSans-4e" x="1490.421875"/>
     </g>
    </g>
    <g id="patch_33">
     <path d="M 249 149.626563 
L 269 149.626563 
L 269 142.626563 
L 249 142.626563 
z
" style="fill: #ff7f0e"/>
    </g>
    <g id="text_41">
     <!-- Core i5 6300HQ - KdTreeNanoflann -->
     <g transform="translate(277 149.626563)scale(0.1 -0.1)">
      <defs>
       <path id="DejaVuSans-66" d="M 2375 4863 
L 2375 4384 
L 1825 4384 
Q 1516 4384 1395 4259 
Q 1275 4134 1275 3809 
L 1275 3500 
L 2222 3500 
L 2222 3053 
L 1275 3053 
L 1275 0 
L 697 0 
L 697 3053 
L 147 3053 
L 147 3500 
L 697 3500 
L 697 3744 
Q 697 4328 969 4595 
Q 1241 4863 1831 4863 
L 2375 4863 
z
" transform="scale(0.015625)"/>
       <path id="DejaVuSans-6c" d="M 603 4863 
L 1178 4863 
L 1178 0 
L 603 0 
L 603 4863 
z
" transform="scale(0.015625)"/>
      </defs>
      <use xlink:href="#DejaVuSans-43"/>
      <use xlink:href="#DejaVuSans-6f" x="69.824219"/>
      <use xlink:href="#DejaVuSans-72" x="131.005859"/>
      <use xlink:href="#DejaVuSans-65" x="169.869141"/>
      <use xlink:href="#DejaVuSans-20" x="231.392578"/>
      <use xlink:href="#DejaVuSans-69" x="263.179688"/>
      <use xlink:href="#DejaVuSans-35" x="290.962891"/>
      <use xlink:href="#DejaVuSans-20" x="354.585938"/>
      <use xlink:href="#DejaVuSans-36" x="386.373047"/>
      <use xlink:href="#DejaVuSans-33" x="449.996094"/>
      <use xlink:href="#DejaVuSans-30" x="513.619141"/>
      <use xlink:href="#DejaVuSans-30" x="577.242188"/>
      <use xlink:href="#DejaVuSans-48" x="640.865234"/>
      <use xlink:href="#DejaVuSans-51" x="716.060547"/>
      <use xlink:href="#DejaVuSans-20" x="794.771484"/>
      <use xlink:href="#DejaVuSans-2d" x="826.558594"/>
      <use xlink:href="#DejaVuSans-20" x="862.642578"/>
      <use xlink:href="#DejaVuSans-4b" x="894.429688"/>
      <use xlink:href="#DejaVuSans-64" x="960.005859"/>
      <use xlink:href="#DejaVuSans-54" x="1023.482422"/>
      <use xlink:href="#DejaVuSans-72" x="1069.816406"/>
      <use xlink:href="#DejaVuSans-65" x="1108.679688"/>
      <use xlink:href="#DejaVuSans-65" x="1170.203125"/>
      <use xlink:href="#DejaVuSans-4e" x="1231.726562"/>
      <use xlink:href="#DejaVuSans-61" x="1306.53125"/>
      <use xlink:href="#DejaVuSans-6e" x="1367.810547"/>
      <use xlink:href="#DejaVuSans-6f" x="1431.189453"/>
      <use xlink:href="#DejaVuSans-66" x="1492.371094"/>
      <use xlink:href="#DejaVuSans-6c" x="1527.576172"/>
      <use xlink:href="#DejaVuSans-61" x="1555.359375"/>
      <use xlink:href="#DejaVuSans-6e" x="1616.638672"/>
      <use xlink:href="#DejaVuSans-6e" x="1680.017578"/>
     </g>
    </g>
    <g id="patch_34">
     <path d="M 249 164.304688 
L 269 164.304688 
L 269 157.304688 
L 249 157.304688 
z
" style="fill: #2ca02c"/>
    </g>
    <g id="text_42">
     <!-- Core i7 5820K - KdTreeFLANN -->
     <g transform="translate(277 164.304688)scale(0.1 -0.1)">
      <use xlink:href="#DejaVuSans-43"/>
      <use xlink:href="#DejaVuSans-6f" x="69.824219"/>
      <use xlink:href="#DejaVuSans-72" x="131.005859"/>
      <use xlink:href="#DejaVuSans-65" x="169.869141"/>
      <use xlink:href="#DejaVuSans-20" x="231.392578"/>
      <use xlink:href="#DejaVuSans-69" x="263.179688"/>
      <use xlink:href="#DejaVuSans-37" x="290.962891"/>
      <use xlink:href="#DejaVuSans-20" x="354.585938"/>
      <use xlink:href="#DejaVuSans-35" x="386.373047"/>
      <use xlink:href="#DejaVuSans-38" x="449.996094"/>
      <use xlink:href="#DejaVuSans-32" x="513.619141"/>
      <use xlink:href="#DejaVuSans-30" x="577.242188"/>
      <use xlink:href="#DejaVuSans-4b" x="640.865234"/>
      <use xlink:href="#DejaVuSans-20" x="706.441406"/>
      <use xlink:href="#DejaVuSans-2d" x="738.228516"/>
      <use xlink:href="#DejaVuSans-20" x="774.3125"/>
      <use xlink:href="#DejaVuSans-4b" x="806.099609"/>
      <use xlink:href="#DejaVuSans-64" x="871.675781"/>
      <use xlink:href="#DejaVuSans-54" x="935.152344"/>
      <use xlink:href="#DejaVuSans-72" x="981.486328"/>
      <use xlink:href="#DejaVuSans-65" x="1020.349609"/>
      <use xlink:href="#DejaVuSans-65" x="1081.873047"/>
      <use xlink:href="#DejaVuSans-46" x="1143.396484"/>
      <use xlink:href="#DejaVuSans-4c" x="1200.916016"/>
      <use xlink:href="#DejaVuSans-41" x="1258.878906"/>
      <use xlink:href="#DejaVuSans-4e" x="1327.287109"/>
      <use xlink:href="#DejaVuSans-4e" x="1402.091797"/>
     </g>
    </g>
    <g id="patch_35">
     <path d="M 249 178.982813 
L 269 178.982813 
L 269 171.982813 
L 249 171.982813 
z
" style="fill: #d62728"/>
    </g>
    <g id="text_43">
     <!-- Core i7 5820K - KdTreeNanoflann -->
     <g transform="translate(277 178.982813)scale(0.1 -0.1)">
      <use xlink:href="#DejaVuSans-43"/>
      <use xlink:href="#DejaVuSans-6f" x="69.824219"/>
      <use xlink:href="#DejaVuSans-72" x="131.005859"/>
      <use xlink:href="#DejaVuSans-65" x="169.869141"/>
      <use xlink:href="#DejaVuSans-20" x="231.392578"/>
      <use xlink:href="#DejaVuSans-69" x="263.179688"/>
      <use xlink:href="#DejaVuSans-37" x="290.962891"/>
      <use xlink:href="#DejaVuSans-20" x="354.585938"/>
      <use xlink:href="#DejaVuSans-35" x="386.373047"/>
      <use xlink:href="#DejaVuSans-38" x="449.996094"/>
      <use xlink:href="#DejaVuSans-32" x="513.619141"/>
      <use xlink:href="#DejaVuSans-30" x="577.242188"/>
      <use xlink:href="#DejaVuSans-4b" x="640.865234"/>
      <use xlink:href="#DejaVuSans-20" x="706.441406"/>
      <use xlink:href="#DejaVuSans-2d" x="738.228516"/>
      <use xlink:href="#DejaVuSans-20" x="774.3125"/>
      <use xlink:href="#DejaVuSans-4b" x="806.099609"/>
      <use xlink:href="#DejaVuSans-64" x="871.675781"/>
      <use xlink:href="#DejaVuSans-54" x="935.152344"/>
      <use xlink:href="#DejaVuSans-72" x="981.486328"/>
      <use xlink:href="#DejaVuSans-65" x="1020.349609"/>
      <use xlink:href="#DejaVuSans-65" x="1081.873047"/>
      <use xlink:href="#DejaVuSans-4e" x="1143.396484"/>
      <use xlink:href="#DejaVuSans-61" x="1218.201172"/>
      <use xlink:href="#DejaVuSans-6e" x="1279.480469"/>
      <use xlink:href="#DejaVuSans-6f" x="1342.859375"/>
      <use xlink:href="#DejaVuSans-66" x="1404.041016"/>
      <use xlink:href="#DejaVuSans-6c" x="1439.246094"/>
      <use xlink:href="#DejaVuSans-61" x="1467.029297"/>
      <use xlink:href="#DejaVuSans-6e" x="1528.308594"/>
      <use xlink:href="#DejaVuSans-6e" x="1591.6875"/>
     </g>
    </g>
    <g id="patch_36">
     <path d="M 249 193.660938 
L 269 193.660938 
L 269 186.660938 
L 249 186.660938 
z
" style="fill: #9467bd"/>
    </g>
    <g id="text_44">
     <!-- GeForce GTX 960M - CUDA_KdTreeFLANN -->
     <g transform="translate(277 193.660938)scale(0.1 -0.1)">
      <defs>
       <path id="DejaVuSans-47" d="M 3809 666 
L 3809 1919 
L 2778 1919 
L 2778 2438 
L 4434 2438 
L 4434 434 
Q 4069 175 3628 42 
Q 3188 -91 2688 -91 
Q 1594 -91 976 548 
Q 359 1188 359 2328 
Q 359 3472 976 4111 
Q 1594 4750 2688 4750 
Q 3144 4750 3555 4637 
Q 3966 4525 4313 4306 
L 4313 3634 
Q 3963 3931 3569 4081 
Q 3175 4231 2741 4231 
Q 1884 4231 1454 3753 
Q 1025 3275 1025 2328 
Q 1025 1384 1454 906 
Q 1884 428 2741 428 
Q 3075 428 3337 486 
Q 3600 544 3809 666 
z
" transform="scale(0.015625)"/>
       <path id="DejaVuSans-58" d="M 403 4666 
L 1081 4666 
L 2241 2931 
L 3406 4666 
L 4084 4666 
L 2584 2425 
L 4184 0 
L 3506 0 
L 2194 1984 
L 872 0 
L 191 0 
L 1856 2491 
L 403 4666 
z
" transform="scale(0.015625)"/>
       <path id="DejaVuSans-4d" d="M 628 4666 
L 1569 4666 
L 2759 1491 
L 3956 4666 
L 4897 4666 
L 4897 0 
L 4281 0 
L 4281 4097 
L 3078 897 
L 2444 897 
L 1241 4097 
L 1241 0 
L 628 0 
L 628 4666 
z
" transform="scale(0.015625)"/>
       <path id="DejaVuSans-55" d="M 556 4666 
L 1191 4666 
L 1191 1831 
Q 1191 1081 1462 751 
Q 1734 422 2344 422 
Q 2950 422 3222 751 
Q 3494 1081 3494 1831 
L 3494 4666 
L 4128 4666 
L 4128 1753 
Q 4128 841 3676 375 
Q 3225 -91 2344 -91 
Q 1459 -91 1007 375 
Q 556 841 556 1753 
L 556 4666 
z
" transform="scale(0.015625)"/>
       <path id="DejaVuSans-44" d="M 1259 4147 
L 1259 519 
L 2022 519 
Q 2988 519 3436 956 
Q 3884 1394 3884 2338 
Q 3884 3275 3436 3711 
Q 2988 4147 2022 4147 
L 1259 4147 
z
M 628 4666 
L 1925 4666 
Q 3281 4666 3915 4102 
Q 4550 3538 4550 2338 
Q 4550 1131 3912 565 
Q 3275 0 1925 0 
L 628 0 
L 628 4666 
z
" transform="scale(0.015625)"/>
       <path id="DejaVuSans-5f" d="M 3263 -1063 
L 3263 -1509 
L -63 -1509 
L -63 -1063 
L 3263 -1063 
z
" transform="scale(0.015625)"/>
      </defs>
      <use xlink:href="#DejaVuSans-47"/>
      <use xlink:href="#DejaVuSans-65" x="77.490234"/>
      <use xlink:href="#DejaVuSans-46" x="139.013672"/>
      <use xlink:href="#DejaVuSans-6f" x="192.908203"/>
      <use xlink:href="#DejaVuSans-72" x="254.089844"/>
      <use xlink:href="#DejaVuSans-63" x="292.953125"/>
      <use xlink:href="#DejaVuSans-65" x="347.933594"/>
      <use xlink:href="#DejaVuSans-20" x="409.457031"/>
      <use xlink:href="#DejaVuSans-47" x="441.244141"/>
      <use xlink:href="#DejaVuSans-54" x="515.109375"/>
      <use xlink:href="#DejaVuSans-58" x="576.193359"/>
      <use xlink:href="#DejaVuSans-20" x="644.699219"/>
      <use xlink:href="#DejaVuSans-39" x="676.486328"/>
      <use xlink:href="#DejaVuSans-36" x="740.109375"/>
      <use xlink:href="#DejaVuSans-30" x="803.732422"/>
      <use xlink:href="#DejaVuSans-4d" x="867.355469"/>
      <use xlink:href="#DejaVuSans-20" x="953.634766"/>
      <use xlink:href="#DejaVuSans-2d" x="985.421875"/>
      <use xlink:href="#DejaVuSans-20" x="1021.505859"/>
      <use xlink:href="#DejaVuSans-43" x="1053.292969"/>
      <use xlink:href="#DejaVuSans-55" x="1123.117188"/>
      <use xlink:href="#DejaVuSans-44" x="1196.310547"/>
      <use xlink:href="#DejaVuSans-41" x="1271.5625"/>
      <use xlink:href="#DejaVuSans-5f" x="1339.970703"/>
      <use xlink:href="#DejaVuSans-4b" x="1389.970703"/>
      <use xlink:href="#DejaVuSans-64" x="1455.546875"/>
      <use xlink:href="#DejaVuSans-54" x="1519.023438"/>
      <use xlink:href="#DejaVuSans-72" x="1565.357422"/>
      <use xlink:href="#DejaVuSans-65" x="1604.220703"/>
      <use xlink:href="#DejaVuSans-65" x="1665.744141"/>
      <use xlink:href="#DejaVuSans-46" x="1727.267578"/>
      <use xlink:href="#DejaVuSans-4c" x="1784.787109"/>
      <use xlink:href="#DejaVuSans-41" x="1842.75"/>
      <use xlink:href="#DejaVuSans-4e" x="1911.158203"/>
      <use xlink:href="#DejaVuSans-4e" x="1985.962891"/>
     </g>
    </g>
    <g id="patch_37">
     <path d="M 249 208.617188 
L 269 208.617188 
L 269 201.617188 
L 249 201.617188 
z
" style="fill: #8c564b"/>
    </g>
    <g id="text_45">
     <!-- GeForce GTX 1080Ti - CUDA_KdTreeFLANN -->
     <g transform="translate(277 208.617188)scale(0.1 -0.1)">
      <use xlink:href="#DejaVuSans-47"/>
      <use xlink:href="#DejaVuSans-65" x="77.490234"/>
      <use xlink:href="#DejaVuSans-46" x="139.013672"/>
      <use xlink:href="#DejaVuSans-6f" x="192.908203"/>
      <use xlink:href="#DejaVuSans-72" x="254.089844"/>
      <use xlink:href="#DejaVuSans-63" x="292.953125"/>
      <use xlink:href="#DejaVuSans-65" x="347.933594"/>
      <use xlink:href="#DejaVuSans-20" x="409.457031"/>
      <use xlink:href="#DejaVuSans-47" x="441.244141"/>
      <use xlink:href="#DejaVuSans-54" x="515.109375"/>
      <use xlink:href="#DejaVuSans-58" x="576.193359"/>
      <use xlink:href="#DejaVuSans-20" x="644.699219"/>
      <use xlink:href="#DejaVuSans-31" x="676.486328"/>
      <use xlink:href="#DejaVuSans-30" x="740.109375"/>
      <use xlink:href="#DejaVuSans-38" x="803.732422"/>
      <use xlink:href="#DejaVuSans-30" x="867.355469"/>
      <use xlink:href="#DejaVuSans-54" x="930.978516"/>
      <use xlink:href="#DejaVuSans-69" x="988.9375"/>
      <use xlink:href="#DejaVuSans-20" x="1016.720703"/>
      <use xlink:href="#DejaVuSans-2d" x="1048.507812"/>
      <use xlink:href="#DejaVuSans-20" x="1084.591797"/>
      <use xlink:href="#DejaVuSans-43" x="1116.378906"/>
      <use xlink:href="#DejaVuSans-55" x="1186.203125"/>
      <use xlink:href="#DejaVuSans-44" x="1259.396484"/>
      <use xlink:href="#DejaVuSans-41" x="1334.648438"/>
      <use xlink:href="#DejaVuSans-5f" x="1403.056641"/>
      <use xlink:href="#DejaVuSans-4b" x="1453.056641"/>
      <use xlink:href="#DejaVuSans-64" x="1518.632812"/>
      <use xlink:href="#DejaVuSans-54" x="1582.109375"/>
      <use xlink:href="#DejaVuSans-72" x="1628.443359"/>
      <use xlink:href="#DejaVuSans-65" x="1667.306641"/>
      <use xlink:href="#DejaVuSans-65" x="1728.830078"/>
      <use xlink:href="#DejaVuSans-46" x="1790.353516"/>
      <use xlink:href="#DejaVuSans-4c" x="1847.873047"/>
      <use xlink:href="#DejaVuSans-41" x="1905.835938"/>
      <use xlink:href="#DejaVuSans-4e" x="1974.244141"/>
      <use xlink:href="#DejaVuSans-4e" x="2049.048828"/>
     </g>
    </g>
   </g>
  </g>
  <g id="text_46">
   <!-- NN search -->
   <g transform="translate(922.508203 29.602969)scale(0.13 -0.13)">
    <defs>
     <path id="DejaVuSans-Bold-4e" d="M 588 4666 
L 1931 4666 
L 3628 1466 
L 3628 4666 
L 4769 4666 
L 4769 0 
L 3425 0 
L 1728 3200 
L 1728 0 
L 588 0 
L 588 4666 
z
" transform="scale(0.015625)"/>
     <path id="DejaVuSans-Bold-20" transform="scale(0.015625)"/>
     <path id="DejaVuSans-Bold-73" d="M 3272 3391 
L 3272 2541 
Q 2913 2691 2578 2766 
Q 2244 2841 1947 2841 
Q 1628 2841 1473 2761 
Q 1319 2681 1319 2516 
Q 1319 2381 1436 2309 
Q 1553 2238 1856 2203 
L 2053 2175 
Q 2913 2066 3209 1816 
Q 3506 1566 3506 1031 
Q 3506 472 3093 190 
Q 2681 -91 1863 -91 
Q 1516 -91 1145 -36 
Q 775 19 384 128 
L 384 978 
Q 719 816 1070 734 
Q 1422 653 1784 653 
Q 2113 653 2278 743 
Q 2444 834 2444 1013 
Q 2444 1163 2330 1236 
Q 2216 1309 1875 1350 
L 1678 1375 
Q 931 1469 631 1722 
Q 331 1975 331 2491 
Q 331 3047 712 3315 
Q 1094 3584 1881 3584 
Q 2191 3584 2531 3537 
Q 2872 3491 3272 3391 
z
" transform="scale(0.015625)"/>
     <path id="DejaVuSans-Bold-65" d="M 4031 1759 
L 4031 1441 
L 1416 1441 
Q 1456 1047 1700 850 
Q 1944 653 2381 653 
Q 2734 653 3104 758 
Q 3475 863 3866 1075 
L 3866 213 
Q 3469 63 3072 -14 
Q 2675 -91 2278 -91 
Q 1328 -91 801 392 
Q 275 875 275 1747 
Q 275 2603 792 3093 
Q 1309 3584 2216 3584 
Q 3041 3584 3536 3087 
Q 4031 2591 4031 1759 
z
M 2881 2131 
Q 2881 2450 2695 2645 
Q 2509 2841 2209 2841 
Q 1884 2841 1681 2658 
Q 1478 2475 1428 2131 
L 2881 2131 
z
" transform="scale(0.015625)"/>
     <path id="DejaVuSans-Bold-61" d="M 2106 1575 
Q 1756 1575 1579 1456 
Q 1403 1338 1403 1106 
Q 1403 894 1545 773 
Q 1688 653 1941 653 
Q 2256 653 2472 879 
Q 2688 1106 2688 1447 
L 2688 1575 
L 2106 1575 
z
M 3816 1997 
L 3816 0 
L 2688 0 
L 2688 519 
Q 2463 200 2181 54 
Q 1900 -91 1497 -91 
Q 953 -91 614 226 
Q 275 544 275 1050 
Q 275 1666 698 1953 
Q 1122 2241 2028 2241 
L 2688 2241 
L 2688 2328 
Q 2688 2594 2478 2717 
Q 2269 2841 1825 2841 
Q 1466 2841 1156 2769 
Q 847 2697 581 2553 
L 581 3406 
Q 941 3494 1303 3539 
Q 1666 3584 2028 3584 
Q 2975 3584 3395 3211 
Q 3816 2838 3816 1997 
z
" transform="scale(0.015625)"/>
     <path id="DejaVuSans-Bold-72" d="M 3138 2547 
Q 2991 2616 2845 2648 
Q 2700 2681 2553 2681 
Q 2122 2681 1889 2404 
Q 1656 2128 1656 1613 
L 1656 0 
L 538 0 
L 538 3500 
L 1656 3500 
L 1656 2925 
Q 1872 3269 2151 3426 
Q 2431 3584 2822 3584 
Q 2878 3584 2943 3579 
Q 3009 3575 3134 3559 
L 3138 2547 
z
" transform="scale(0.015625)"/>
     <path id="DejaVuSans-Bold-63" d="M 3366 3391 
L 3366 2478 
Q 3138 2634 2908 2709 
Q 2678 2784 2431 2784 
Q 1963 2784 1702 2511 
Q 1441 2238 1441 1747 
Q 1441 1256 1702 982 
Q 1963 709 2431 709 
Q 2694 709 2930 787 
Q 3166 866 3366 1019 
L 3366 103 
Q 3103 6 2833 -42 
Q 2563 -91 2291 -91 
Q 1344 -91 809 395 
Q 275 881 275 1747 
Q 275 2613 809 3098 
Q 1344 3584 2291 3584 
Q 2566 3584 2833 3536 
Q 3100 3488 3366 3391 
z
" transform="scale(0.015625)"/>
     <path id="DejaVuSans-Bold-68" d="M 4056 2131 
L 4056 0 
L 2931 0 
L 2931 347 
L 2931 1625 
Q 2931 2084 2911 2256 
Q 2891 2428 2841 2509 
Q 2775 2619 2662 2680 
Q 2550 2741 2406 2741 
Q 2056 2741 1856 2470 
Q 1656 2200 1656 1722 
L 1656 0 
L 538 0 
L 538 4863 
L 1656 4863 
L 1656 2988 
Q 1909 3294 2193 3439 
Q 2478 3584 2822 3584 
Q 3428 3584 3742 3212 
Q 4056 2841 4056 2131 
z
" transform="scale(0.015625)"/>
    </defs>
    <use xlink:href="#DejaVuSans-Bold-4e"/>
    <use xlink:href="#DejaVuSans-Bold-4e" x="83.691406"/>
    <use xlink:href="#DejaVuSans-Bold-20" x="167.382812"/>
    <use xlink:href="#DejaVuSans-Bold-73" x="202.197266"/>
    <use xlink:href="#DejaVuSans-Bold-65" x="261.71875"/>
    <use xlink:href="#DejaVuSans-Bold-61" x="329.541016"/>
    <use xlink:href="#DejaVuSans-Bold-72" x="397.021484"/>
    <use xlink:href="#DejaVuSans-Bold-63" x="446.337891"/>
    <use xlink:href="#DejaVuSans-Bold-68" x="505.615234"/>
   </g>
   <!-- # query points = 100,000, K = 1, Multithreaded / CUDA -->
   <g transform="translate(757.892656 44.160125)scale(0.13 -0.13)">
    <defs>
     <path id="DejaVuSans-Bold-23" d="M 2847 4594 
L 2547 3391 
L 3372 3391 
L 3675 4594 
L 4366 4594 
L 4063 3391 
L 4928 3391 
L 4928 2725 
L 3897 2725 
L 3681 1869 
L 4569 1869 
L 4569 1197 
L 3519 1197 
L 3219 0 
L 2528 0 
L 2828 1197 
L 2003 1197 
L 1703 0 
L 1006 0 
L 1306 1197 
L 434 1197 
L 434 1869 
L 1459 1869 
L 1678 2725 
L 794 2725 
L 794 3391 
L 1850 3391 
L 2150 4594 
L 2847 4594 
z
M 3200 2725 
L 2375 2725 
L 2156 1869 
L 2981 1869 
L 3200 2725 
z
" transform="scale(0.015625)"/>
     <path id="DejaVuSans-Bold-71" d="M 2181 2772 
Q 1825 2772 1636 2509 
Q 1447 2247 1447 1747 
Q 1447 1247 1636 984 
Q 1825 722 2181 722 
Q 2541 722 2730 984 
Q 2919 1247 2919 1747 
Q 2919 2247 2730 2509 
Q 2541 2772 2181 2772 
z
M 2919 506 
Q 2688 197 2409 53 
Q 2131 -91 1766 -91 
Q 1119 -91 703 423 
Q 288 938 288 1747 
Q 288 2556 703 3067 
Q 1119 3578 1766 3578 
Q 2131 3578 2409 3434 
Q 2688 3291 2919 2981 
L 2919 3500 
L 4044 3500 
L 4044 -1331 
L 2919 -1331 
L 2919 506 
z
" transform="scale(0.015625)"/>
     <path id="DejaVuSans-Bold-75" d="M 500 1363 
L 500 3500 
L 1625 3500 
L 1625 3150 
Q 1625 2866 1622 2436 
Q 1619 2006 1619 1863 
Q 1619 1441 1641 1255 
Q 1663 1069 1716 984 
Q 1784 875 1895 815 
Q 2006 756 2150 756 
Q 2500 756 2700 1025 
Q 2900 1294 2900 1772 
L 2900 3500 
L 4019 3500 
L 4019 0 
L 2900 0 
L 2900 506 
Q 2647 200 2364 54 
Q 2081 -91 1741 -91 
Q 1134 -91 817 281 
Q 500 653 500 1363 
z
" transform="scale(0.015625)"/>
     <path id="DejaVuSans-Bold-79" d="M 78 3500 
L 1197 3500 
L 2138 1125 
L 2938 3500 
L 4056 3500 
L 2584 -331 
Q 2363 -916 2067 -1148 
Q 1772 -1381 1288 -1381 
L 641 -1381 
L 641 -647 
L 991 -647 
Q 1275 -647 1404 -556 
Q 1534 -466 1606 -231 
L 1638 -134 
L 78 3500 
z
" transform="scale(0.015625)"/>
     <path id="DejaVuSans-Bold-70" d="M 1656 506 
L 1656 -1331 
L 538 -1331 
L 538 3500 
L 1656 3500 
L 1656 2988 
Q 1888 3294 2169 3439 
Q 2450 3584 2816 3584 
Q 3463 3584 3878 3070 
Q 4294 2556 4294 1747 
Q 4294 938 3878 423 
Q 3463 -91 2816 -91 
Q 2450 -91 2169 54 
Q 1888 200 1656 506 
z
M 2400 2772 
Q 2041 2772 1848 2508 
Q 1656 2244 1656 1747 
Q 1656 1250 1848 986 
Q 2041 722 2400 722 
Q 2759 722 2948 984 
Q 3138 1247 3138 1747 
Q 3138 2247 2948 2509 
Q 2759 2772 2400 2772 
z
" transform="scale(0.015625)"/>
     <path id="DejaVuSans-Bold-6f" d="M 2203 2784 
Q 1831 2784 1636 2517 
Q 1441 2250 1441 1747 
Q 1441 1244 1636 976 
Q 1831 709 2203 709 
Q 2569 709 2762 976 
Q 2956 1244 2956 1747 
Q 2956 2250 2762 2517 
Q 2569 2784 2203 2784 
z
M 2203 3584 
Q 3106 3584 3614 3096 
Q 4122 2609 4122 1747 
Q 4122 884 3614 396 
Q 3106 -91 2203 -91 
Q 1297 -91 786 396 
Q 275 884 275 1747 
Q 275 2609 786 3096 
Q 1297 3584 2203 3584 
z
" transform="scale(0.015625)"/>
     <path id="DejaVuSans-Bold-69" d="M 538 3500 
L 1656 3500 
L 1656 0 
L 538 0 
L 538 3500 
z
M 538 4863 
L 1656 4863 
L 1656 3950 
L 538 3950 
L 538 4863 
z
" transform="scale(0.015625)"/>
     <path id="DejaVuSans-Bold-6e" d="M 4056 2131 
L 4056 0 
L 2931 0 
L 2931 347 
L 2931 1631 
Q 2931 2084 2911 2256 
Q 2891 2428 2841 2509 
Q 2775 2619 2662 2680 
Q 2550 2741 2406 2741 
Q 2056 2741 1856 2470 
Q 1656 2200 1656 1722 
L 1656 0 
L 538 0 
L 538 3500 
L 1656 3500 
L 1656 2988 
Q 1909 3294 2193 3439 
Q 2478 3584 2822 3584 
Q 3428 3584 3742 3212 
Q 4056 2841 4056 2131 
z
" transform="scale(0.015625)"/>
     <path id="DejaVuSans-Bold-74" d="M 1759 4494 
L 1759 3500 
L 2913 3500 
L 2913 2700 
L 1759 2700 
L 1759 1216 
Q 1759 972 1856 886 
Q 1953 800 2241 800 
L 2816 800 
L 2816 0 
L 1856 0 
Q 1194 0 917 276 
Q 641 553 641 1216 
L 641 2700 
L 84 2700 
L 84 3500 
L 641 3500 
L 641 4494 
L 1759 4494 
z
" transform="scale(0.015625)"/>
     <path id="DejaVuSans-Bold-3d" d="M 678 3084 
L 4684 3084 
L 4684 2350 
L 678 2350 
L 678 3084 
z
M 678 1663 
L 4684 1663 
L 4684 922 
L 678 922 
L 678 1663 
z
" transform="scale(0.015625)"/>
     <path id="DejaVuSans-Bold-31" d="M 750 831 
L 1813 831 
L 1813 3847 
L 722 3622 
L 722 4441 
L 1806 4666 
L 2950 4666 
L 2950 831 
L 4013 831 
L 4013 0 
L 750 0 
L 750 831 
z
" transform="scale(0.015625)"/>
     <path id="DejaVuSans-Bold-30" d="M 2944 2338 
Q 2944 3213 2780 3570 
Q 2616 3928 2228 3928 
Q 1841 3928 1675 3570 
Q 1509 3213 1509 2338 
Q 1509 1453 1675 1090 
Q 1841 728 2228 728 
Q 2613 728 2778 1090 
Q 2944 1453 2944 2338 
z
M 4147 2328 
Q 4147 1169 3647 539 
Q 3147 -91 2228 -91 
Q 1306 -91 806 539 
Q 306 1169 306 2328 
Q 306 3491 806 4120 
Q 1306 4750 2228 4750 
Q 3147 4750 3647 4120 
Q 4147 3491 4147 2328 
z
" transform="scale(0.015625)"/>
     <path id="DejaVuSans-Bold-2c" d="M 653 1209 
L 1778 1209 
L 1778 256 
L 1006 -909 
L 341 -909 
L 653 256 
L 653 1209 
z
" transform="scale(0.015625)"/>
     <path id="DejaVuSans-Bold-4b" d="M 588 4666 
L 1791 4666 
L 1791 2963 
L 3525 4666 
L 4922 4666 
L 2675 2456 
L 5153 0 
L 3647 0 
L 1791 1838 
L 1791 0 
L 588 0 
L 588 4666 
z
" transform="scale(0.015625)"/>
     <path id="DejaVuSans-Bold-4d" d="M 588 4666 
L 2119 4666 
L 3181 2169 
L 4250 4666 
L 5778 4666 
L 5778 0 
L 4641 0 
L 4641 3413 
L 3566 897 
L 2803 897 
L 1728 3413 
L 1728 0 
L 588 0 
L 588 4666 
z
" transform="scale(0.015625)"/>
     <path id="DejaVuSans-Bold-6c" d="M 538 4863 
L 1656 4863 
L 1656 0 
L 538 0 
L 538 4863 
z
" transform="scale(0.015625)"/>
     <path id="DejaVuSans-Bold-64" d="M 2919 2988 
L 2919 4863 
L 4044 4863 
L 4044 0 
L 2919 0 
L 2919 506 
Q 2688 197 2409 53 
Q 2131 -91 1766 -91 
Q 1119 -91 703 423 
Q 288 938 288 1747 
Q 288 2556 703 3070 
Q 1119 3584 1766 3584 
Q 2128 3584 2408 3439 
Q 2688 3294 2919 2988 
z
M 2181 722 
Q 2541 722 2730 984 
Q 2919 1247 2919 1747 
Q 2919 2247 2730 2509 
Q 2541 2772 2181 2772 
Q 1825 2772 1636 2509 
Q 1447 2247 1447 1747 
Q 1447 1247 1636 984 
Q 1825 722 2181 722 
z
" transform="scale(0.015625)"/>
     <path id="DejaVuSans-Bold-2f" d="M 1644 4666 
L 2338 4666 
L 691 -594 
L 0 -594 
L 1644 4666 
z
" transform="scale(0.015625)"/>
     <path id="DejaVuSans-Bold-43" d="M 4288 256 
Q 3956 84 3597 -3 
Q 3238 -91 2847 -91 
Q 1681 -91 1000 561 
Q 319 1213 319 2328 
Q 319 3447 1000 4098 
Q 1681 4750 2847 4750 
Q 3238 4750 3597 4662 
Q 3956 4575 4288 4403 
L 4288 3438 
Q 3953 3666 3628 3772 
Q 3303 3878 2944 3878 
Q 2300 3878 1931 3465 
Q 1563 3053 1563 2328 
Q 1563 1606 1931 1193 
Q 2300 781 2944 781 
Q 3303 781 3628 887 
Q 3953 994 4288 1222 
L 4288 256 
z
" transform="scale(0.015625)"/>
     <path id="DejaVuSans-Bold-55" d="M 588 4666 
L 1791 4666 
L 1791 1869 
Q 1791 1291 1980 1042 
Q 2169 794 2597 794 
Q 3028 794 3217 1042 
Q 3406 1291 3406 1869 
L 3406 4666 
L 4609 4666 
L 4609 1869 
Q 4609 878 4112 393 
Q 3616 -91 2597 -91 
Q 1581 -91 1084 393 
Q 588 878 588 1869 
L 588 4666 
z
" transform="scale(0.015625)"/>
     <path id="DejaVuSans-Bold-44" d="M 1791 3756 
L 1791 909 
L 2222 909 
Q 2959 909 3348 1275 
Q 3738 1641 3738 2338 
Q 3738 3031 3350 3393 
Q 2963 3756 2222 3756 
L 1791 3756 
z
M 588 4666 
L 1856 4666 
Q 2919 4666 3439 4514 
Q 3959 4363 4331 4000 
Q 4659 3684 4818 3271 
Q 4978 2859 4978 2338 
Q 4978 1809 4818 1395 
Q 4659 981 4331 666 
Q 3956 303 3431 151 
Q 2906 0 1856 0 
L 588 0 
L 588 4666 
z
" transform="scale(0.015625)"/>
     <path id="DejaVuSans-Bold-41" d="M 3419 850 
L 1538 850 
L 1241 0 
L 31 0 
L 1759 4666 
L 3194 4666 
L 4922 0 
L 3713 0 
L 3419 850 
z
M 1838 1716 
L 3116 1716 
L 2478 3572 
L 1838 1716 
z
" transform="scale(0.015625)"/>
    </defs>
    <use xlink:href="#DejaVuSans-Bold-23"/>
    <use xlink:href="#DejaVuSans-Bold-20" x="83.789062"/>
    <use xlink:href="#DejaVuSans-Bold-71" x="118.603516"/>
    <use xlink:href="#DejaVuSans-Bold-75" x="190.185547"/>
    <use xlink:href="#DejaVuSans-Bold-65" x="261.376953"/>
    <use xlink:href="#DejaVuSans-Bold-72" x="329.199219"/>
    <use xlink:href="#DejaVuSans-Bold-79" x="378.515625"/>
    <use xlink:href="#DejaVuSans-Bold-20" x="443.701172"/>
    <use xlink:href="#DejaVuSans-Bold-70" x="478.515625"/>
    <use xlink:href="#DejaVuSans-Bold-6f" x="550.097656"/>
    <use xlink:href="#DejaVuSans-Bold-69" x="618.798828"/>
    <use xlink:href="#DejaVuSans-Bold-6e" x="653.076172"/>
    <use xlink:href="#DejaVuSans-Bold-74" x="724.267578"/>
    <use xlink:href="#DejaVuSans-Bold-73" x="772.070312"/>
    <use xlink:href="#DejaVuSans-Bold-20" x="831.591797"/>
    <use xlink:href="#DejaVuSans-Bold-3d" x="866.40625"/>
    <use xlink:href="#DejaVuSans-Bold-20" x="950.195312"/>
    <use xlink:href="#DejaVuSans-Bold-31" x="985.009766"/>
    <use xlink:href="#DejaVuSans-Bold-30" x="1054.589844"/>
    <use xlink:href="#DejaVuSans-Bold-30" x="1124.169922"/>
    <use xlink:href="#DejaVuSans-Bold-2c" x="1193.75"/>
    <use xlink:href="#DejaVuSans-Bold-30" x="1231.738281"/>
    <use xlink:href="#DejaVuSans-Bold-30" x="1301.318359"/>
    <use xlink:href="#DejaVuSans-Bold-30" x="1370.898438"/>
    <use xlink:href="#DejaVuSans-Bold-2c" x="1440.478516"/>
    <use xlink:href="#DejaVuSans-Bold-20" x="1478.466797"/>
    <use xlink:href="#DejaVuSans-Bold-4b" x="1513.28125"/>
    <use xlink:href="#DejaVuSans-Bold-20" x="1590.771484"/>
    <use xlink:href="#DejaVuSans-Bold-3d" x="1625.585938"/>
    <use xlink:href="#DejaVuSans-Bold-20" x="1709.375"/>
    <use xlink:href="#DejaVuSans-Bold-31" x="1744.189453"/>
    <use xlink:href="#DejaVuSans-Bold-2c" x="1813.769531"/>
    <use xlink:href="#DejaVuSans-Bold-20" x="1851.757812"/>
    <use xlink:href="#DejaVuSans-Bold-4d" x="1886.572266"/>
    <use xlink:href="#DejaVuSans-Bold-75" x="1986.083984"/>
    <use xlink:href="#DejaVuSans-Bold-6c" x="2057.275391"/>
    <use xlink:href="#DejaVuSans-Bold-74" x="2091.552734"/>
    <use xlink:href="#DejaVuSans-Bold-69" x="2139.355469"/>
    <use xlink:href="#DejaVuSans-Bold-74" x="2173.632812"/>
    <use xlink:href="#DejaVuSans-Bold-68" x="2221.435547"/>
    <use xlink:href="#DejaVuSans-Bold-72" x="2292.626953"/>
    <use xlink:href="#DejaVuSans-Bold-65" x="2341.943359"/>
    <use xlink:href="#DejaVuSans-Bold-61" x="2409.765625"/>
    <use xlink:href="#DejaVuSans-Bold-64" x="2477.246094"/>
    <use xlink:href="#DejaVuSans-Bold-65" x="2548.828125"/>
    <use xlink:href="#DejaVuSans-Bold-64" x="2616.650391"/>
    <use xlink:href="#DejaVuSans-Bold-20" x="2688.232422"/>
    <use xlink:href="#DejaVuSans-Bold-2f" x="2723.046875"/>
    <use xlink:href="#DejaVuSans-Bold-20" x="2759.570312"/>
    <use xlink:href="#DejaVuSans-Bold-43" x="2794.384766"/>
    <use xlink:href="#DejaVuSans-Bold-55" x="2867.773438"/>
    <use xlink:href="#DejaVuSans-Bold-44" x="2948.974609"/>
    <use xlink:href="#DejaVuSans-Bold-41" x="3031.982422"/>
   </g>
  </g>
 </g>
 <defs>
  <clipPath id="p2ebd5104ca">
   <rect x="240" y="118.35" width="1488" height="759.4125"/>
  </clipPath>
 </defs>
</svg>
